<svg width="221" height="56" viewBox="0 0 221 56" fill="none" xmlns="http://www.w3.org/2000/svg">
<path d="M90.176 37C89.904 36.28 89.648 35.576 89.408 34.888C89.168 34.184 88.92 33.472 88.664 32.752H81.128L79.616 37H77.192C77.832 35.24 78.432 33.616 78.992 32.128C79.552 30.624 80.096 29.2 80.624 27.856C81.168 26.512 81.704 25.232 82.232 24.016C82.76 22.784 83.312 21.568 83.888 20.368H86.024C86.6 21.568 87.152 22.784 87.68 24.016C88.208 25.232 88.736 26.512 89.264 27.856C89.808 29.2 90.36 30.624 90.92 32.128C91.48 33.616 92.08 35.24 92.72 37H90.176ZM87.992 30.832C87.48 29.44 86.968 28.096 86.456 26.8C85.96 25.488 85.44 24.232 84.896 23.032C84.336 24.232 83.8 25.488 83.288 26.8C82.792 28.096 82.296 29.44 81.8 30.832H87.992ZM103.498 30.784C103.498 29.328 103.138 28.208 102.418 27.424C101.698 26.64 100.738 26.248 99.5381 26.248C98.8661 26.248 98.3381 26.272 97.9541 26.32C97.5861 26.368 97.2901 26.424 97.0661 26.488V34.36C97.3381 34.584 97.7301 34.8 98.2421 35.008C98.7541 35.216 99.3141 35.32 99.9221 35.32C100.562 35.32 101.106 35.208 101.554 34.984C102.018 34.744 102.394 34.424 102.682 34.024C102.97 33.608 103.178 33.128 103.306 32.584C103.434 32.024 103.498 31.424 103.498 30.784ZM105.826 30.784C105.826 31.728 105.698 32.6 105.442 33.4C105.202 34.2 104.842 34.888 104.362 35.464C103.882 36.04 103.29 36.488 102.586 36.808C101.898 37.128 101.106 37.288 100.21 37.288C99.4901 37.288 98.8501 37.192 98.2901 37C97.7461 36.808 97.3381 36.624 97.0661 36.448V41.44H94.8341V24.904C95.3621 24.776 96.0181 24.64 96.8021 24.496C97.6021 24.336 98.5221 24.256 99.5621 24.256C100.522 24.256 101.386 24.408 102.154 24.712C102.922 25.016 103.578 25.448 104.122 26.008C104.666 26.568 105.082 27.256 105.37 28.072C105.674 28.872 105.826 29.776 105.826 30.784ZM117.631 30.784C117.631 29.328 117.271 28.208 116.551 27.424C115.831 26.64 114.871 26.248 113.671 26.248C112.999 26.248 112.471 26.272 112.087 26.32C111.719 26.368 111.423 26.424 111.199 26.488V34.36C111.471 34.584 111.863 34.8 112.375 35.008C112.887 35.216 113.447 35.32 114.055 35.32C114.695 35.32 115.239 35.208 115.687 34.984C116.151 34.744 116.527 34.424 116.815 34.024C117.103 33.608 117.311 33.128 117.439 32.584C117.567 32.024 117.631 31.424 117.631 30.784ZM119.959 30.784C119.959 31.728 119.831 32.6 119.575 33.4C119.335 34.2 118.975 34.888 118.495 35.464C118.015 36.04 117.423 36.488 116.719 36.808C116.031 37.128 115.239 37.288 114.343 37.288C113.623 37.288 112.983 37.192 112.423 37C111.879 36.808 111.471 36.624 111.199 36.448V41.44H108.967V24.904C109.495 24.776 110.151 24.64 110.935 24.496C111.735 24.336 112.655 24.256 113.695 24.256C114.655 24.256 115.519 24.408 116.287 24.712C117.055 25.016 117.711 25.448 118.255 26.008C118.799 26.568 119.215 27.256 119.503 28.072C119.807 28.872 119.959 29.776 119.959 30.784ZM137.894 25.72C137.222 27.864 136.542 29.848 135.854 31.672C135.166 33.496 134.478 35.272 133.79 37H131.462C130.614 34.552 129.862 31.968 129.206 29.248C128.566 26.528 127.966 23.568 127.406 20.368H129.854C130.078 21.616 130.31 22.864 130.55 24.112C130.79 25.36 131.038 26.576 131.294 27.76C131.55 28.928 131.806 30.048 132.062 31.12C132.318 32.192 132.582 33.184 132.854 34.096C133.494 32.416 134.174 30.576 134.894 28.576C135.614 26.56 136.286 24.48 136.91 22.336H138.926C139.55 24.48 140.23 26.56 140.966 28.576C141.702 30.576 142.39 32.416 143.03 34.096C143.286 33.2 143.542 32.216 143.798 31.144C144.054 30.072 144.302 28.952 144.542 27.784C144.798 26.6 145.046 25.384 145.286 24.136C145.526 22.872 145.758 21.616 145.982 20.368H148.358C147.782 23.568 147.166 26.528 146.51 29.248C145.87 31.968 145.134 34.552 144.302 37H141.974C141.27 35.272 140.582 33.496 139.91 31.672C139.238 29.848 138.566 27.864 137.894 25.72ZM149.708 30.784C149.708 29.68 149.868 28.72 150.188 27.904C150.508 27.072 150.932 26.384 151.46 25.84C151.988 25.296 152.596 24.888 153.284 24.616C153.972 24.344 154.676 24.208 155.396 24.208C157.076 24.208 158.364 24.736 159.26 25.792C160.156 26.832 160.604 28.424 160.604 30.568C160.604 30.664 160.604 30.792 160.604 30.952C160.604 31.096 160.596 31.232 160.58 31.36H152.036C152.132 32.656 152.508 33.64 153.164 34.312C153.82 34.984 154.844 35.32 156.236 35.32C157.02 35.32 157.676 35.256 158.204 35.128C158.748 34.984 159.156 34.848 159.428 34.72L159.74 36.592C159.468 36.736 158.988 36.888 158.3 37.048C157.628 37.208 156.86 37.288 155.996 37.288C154.908 37.288 153.964 37.128 153.164 36.808C152.38 36.472 151.732 36.016 151.22 35.44C150.708 34.864 150.324 34.184 150.068 33.4C149.828 32.6 149.708 31.728 149.708 30.784ZM158.276 29.56C158.292 28.552 158.036 27.728 157.508 27.088C156.996 26.432 156.284 26.104 155.372 26.104C154.86 26.104 154.404 26.208 154.004 26.416C153.62 26.608 153.292 26.864 153.02 27.184C152.748 27.504 152.532 27.872 152.372 28.288C152.228 28.704 152.132 29.128 152.084 29.56H158.276ZM168.035 35.392C168.563 35.392 169.027 35.384 169.427 35.368C169.843 35.336 170.187 35.288 170.459 35.224V31.504C170.299 31.424 170.035 31.36 169.667 31.312C169.315 31.248 168.883 31.216 168.371 31.216C168.035 31.216 167.675 31.24 167.291 31.288C166.923 31.336 166.579 31.44 166.259 31.6C165.955 31.744 165.699 31.952 165.491 32.224C165.283 32.48 165.179 32.824 165.179 33.256C165.179 34.056 165.435 34.616 165.947 34.936C166.459 35.24 167.155 35.392 168.035 35.392ZM167.843 24.208C168.739 24.208 169.491 24.328 170.099 24.568C170.723 24.792 171.219 25.12 171.587 25.552C171.971 25.968 172.243 26.472 172.403 27.064C172.563 27.64 172.643 28.28 172.643 28.984V36.784C172.451 36.816 172.179 36.864 171.827 36.928C171.491 36.976 171.107 37.024 170.675 37.072C170.243 37.12 169.771 37.16 169.259 37.192C168.763 37.24 168.267 37.264 167.771 37.264C167.067 37.264 166.419 37.192 165.827 37.048C165.235 36.904 164.723 36.68 164.291 36.376C163.859 36.056 163.523 35.64 163.283 35.128C163.043 34.616 162.923 34 162.923 33.28C162.923 32.592 163.059 32 163.331 31.504C163.619 31.008 164.003 30.608 164.483 30.304C164.963 30 165.523 29.776 166.163 29.632C166.803 29.488 167.475 29.416 168.179 29.416C168.403 29.416 168.635 29.432 168.875 29.464C169.115 29.48 169.339 29.512 169.547 29.56C169.771 29.592 169.963 29.624 170.123 29.656C170.283 29.688 170.395 29.712 170.459 29.728V29.104C170.459 28.736 170.419 28.376 170.339 28.024C170.259 27.656 170.115 27.336 169.907 27.064C169.699 26.776 169.411 26.552 169.043 26.392C168.691 26.216 168.227 26.128 167.651 26.128C166.915 26.128 166.267 26.184 165.707 26.296C165.163 26.392 164.755 26.496 164.483 26.608L164.219 24.76C164.507 24.632 164.987 24.512 165.659 24.4C166.331 24.272 167.059 24.208 167.843 24.208ZM178.438 24.52H183.166V26.392H178.438V32.152C178.438 32.776 178.486 33.296 178.582 33.712C178.678 34.112 178.822 34.432 179.014 34.672C179.206 34.896 179.446 35.056 179.734 35.152C180.022 35.248 180.358 35.296 180.742 35.296C181.414 35.296 181.95 35.224 182.35 35.08C182.766 34.92 183.054 34.808 183.214 34.744L183.646 36.592C183.422 36.704 183.03 36.84 182.47 37C181.91 37.176 181.27 37.264 180.55 37.264C179.702 37.264 178.998 37.16 178.438 36.952C177.894 36.728 177.454 36.4 177.118 35.968C176.782 35.536 176.542 35.008 176.398 34.384C176.27 33.744 176.206 33.008 176.206 32.176V21.04L178.438 20.656V24.52ZM186.006 37V18.76L188.238 18.376V24.76C188.654 24.6 189.094 24.48 189.558 24.4C190.038 24.304 190.51 24.256 190.974 24.256C191.966 24.256 192.79 24.4 193.446 24.688C194.102 24.96 194.622 25.352 195.006 25.864C195.406 26.36 195.686 26.96 195.846 27.664C196.006 28.368 196.086 29.144 196.086 29.992V37H193.854V30.472C193.854 29.704 193.798 29.048 193.686 28.504C193.59 27.96 193.422 27.52 193.182 27.184C192.942 26.848 192.622 26.608 192.222 26.464C191.822 26.304 191.326 26.224 190.734 26.224C190.494 26.224 190.246 26.24 189.99 26.272C189.734 26.304 189.486 26.344 189.246 26.392C189.022 26.424 188.814 26.464 188.622 26.512C188.446 26.56 188.318 26.6 188.238 26.632V37H186.006ZM199.021 30.784C199.021 29.68 199.181 28.72 199.501 27.904C199.821 27.072 200.245 26.384 200.773 25.84C201.301 25.296 201.909 24.888 202.597 24.616C203.285 24.344 203.989 24.208 204.709 24.208C206.389 24.208 207.677 24.736 208.573 25.792C209.469 26.832 209.917 28.424 209.917 30.568C209.917 30.664 209.917 30.792 209.917 30.952C209.917 31.096 209.909 31.232 209.893 31.36H201.349C201.445 32.656 201.821 33.64 202.477 34.312C203.133 34.984 204.157 35.32 205.549 35.32C206.333 35.32 206.989 35.256 207.517 35.128C208.061 34.984 208.469 34.848 208.741 34.72L209.053 36.592C208.781 36.736 208.301 36.888 207.613 37.048C206.941 37.208 206.173 37.288 205.309 37.288C204.221 37.288 203.277 37.128 202.477 36.808C201.693 36.472 201.045 36.016 200.533 35.44C200.021 34.864 199.637 34.184 199.381 33.4C199.141 32.6 199.021 31.728 199.021 30.784ZM207.589 29.56C207.605 28.552 207.349 27.728 206.821 27.088C206.309 26.432 205.597 26.104 204.685 26.104C204.173 26.104 203.717 26.208 203.317 26.416C202.933 26.608 202.605 26.864 202.333 27.184C202.061 27.504 201.845 27.872 201.685 28.288C201.541 28.704 201.445 29.128 201.397 29.56H207.589ZM217.731 24.256C217.923 24.256 218.139 24.272 218.379 24.304C218.635 24.32 218.883 24.352 219.123 24.4C219.363 24.432 219.579 24.472 219.771 24.52C219.979 24.552 220.131 24.584 220.227 24.616L219.843 26.56C219.667 26.496 219.371 26.424 218.955 26.344C218.555 26.248 218.035 26.2 217.395 26.2C216.979 26.2 216.563 26.248 216.147 26.344C215.747 26.424 215.483 26.48 215.355 26.512V37H213.123V25.048C213.651 24.856 214.307 24.68 215.091 24.52C215.875 24.344 216.755 24.256 217.731 24.256Z" fill="#FBFCFF"/>
<g clip-path="url(#clip0_302_7)">
<path d="M28 39.6667C34.4433 39.6667 39.6667 34.4433 39.6667 28C39.6667 21.5567 34.4433 16.3333 28 16.3333C21.5567 16.3333 16.3333 21.5567 16.3333 28C16.3333 34.4433 21.5567 39.6667 28 39.6667Z" stroke="#FBFCFF" stroke-width="3.5" stroke-linecap="round" stroke-linejoin="round"/>
<path d="M28 2.33334V7.00001" stroke="#FBFCFF" stroke-width="3.5" stroke-linecap="round" stroke-linejoin="round"/>
<path d="M28 49V53.6667" stroke="#FBFCFF" stroke-width="3.5" stroke-linecap="round" stroke-linejoin="round"/>
<path d="M9.84668 9.84668L13.16 13.16" stroke="#FBFCFF" stroke-width="3.5" stroke-linecap="round" stroke-linejoin="round"/>
<path d="M42.84 42.84L46.1533 46.1533" stroke="#FBFCFF" stroke-width="3.5" stroke-linecap="round" stroke-linejoin="round"/>
<path d="M2.33333 28H6.99999" stroke="#FBFCFF" stroke-width="3.5" stroke-linecap="round" stroke-linejoin="round"/>
<path d="M49 28H53.6667" stroke="#FBFCFF" stroke-width="3.5" stroke-linecap="round" stroke-linejoin="round"/>
<path d="M9.84668 46.1533L13.16 42.84" stroke="#FBFCFF" stroke-width="3.5" stroke-linecap="round" stroke-linejoin="round"/>
<path d="M42.84 13.16L46.1533 9.84668" stroke="#FBFCFF" stroke-width="3.5" stroke-linecap="round" stroke-linejoin="round"/>
</g>
<defs>
<clipPath id="clip0_302_7">
<rect width="56" height="56" fill="white"/>
</clipPath>
</defs>
</svg>
